HIERARCHY
ROOT Hips
{
	OFFSET 0.000000 121.760803 0.000000
	CHANNELS 6 Xposition Yposition Zposition Xrotation Yrotation Zrotation 
	JOINT Spine
	{
		OFFSET 0.072000 7.257294 -0.789700
		CHANNELS 3 Xrotation Yrotation Zrotation
		JOINT Spine1
		{
			OFFSET 0.000000 12.508769 -0.658067
			CHANNELS 3 Xrotation Yrotation Zrotation
			JOINT Spine1_split
			{
				OFFSET 0.000000 12.508769 -0.658067
				CHANNELS 3 Xrotation Yrotation Zrotation
				JOINT Spine2
				{
					OFFSET 0.000000 12.508769 -0.658067
					CHANNELS 3 Xrotation Yrotation Zrotation
					JOINT Neck
					{
						OFFSET 0.000000 14.033295 7.520400
						CHANNELS 3 Xrotation Yrotation Zrotation
						JOINT Head
						{
							OFFSET 0.000000 8.198502 5.703100
							CHANNELS 3 Xrotation Yrotation Zrotation
							JOINT HeadTop_End
							{
								OFFSET 0.000000 17.760803 13.332701
								CHANNELS 3 Xrotation Yrotation Zrotation
								End Site
								{
									OFFSET 0.000000 0.000000 0.000000
								}
							}
						}
					}
					JOINT LeftShoulder
					{
						OFFSET 6.292450 5.785301 -0.669000
						CHANNELS 3 Xrotation Yrotation Zrotation
						JOINT LeftShoulder_split
						{
							OFFSET 6.292450 5.785301 -0.669000
							CHANNELS 3 Xrotation Yrotation Zrotation
							JOINT LeftArm
							{
								OFFSET 13.907140 -6.093903 1.965100
								CHANNELS 3 Xrotation Yrotation Zrotation
								JOINT LeftForeArm
								{
									OFFSET 34.140198 0.000000 0.000000
									CHANNELS 3 Xrotation Yrotation Zrotation
									JOINT LeftHand
									{
										OFFSET 40.960209 0.000000 0.000000
										CHANNELS 3 Xrotation Yrotation Zrotation
										JOINT LeftHandThumb1
										{
											OFFSET 10.006996 -7.170425 9.573125
											CHANNELS 3 Xrotation Yrotation Zrotation
											JOINT LeftHandThumb2
											{
												OFFSET 1.835007 -1.059448 1.059443
												CHANNELS 3 Xrotation Yrotation Zrotation
												JOINT LeftHandThumb3
												{
													OFFSET 2.112267 -1.219513 1.219518
													CHANNELS 3 Xrotation Yrotation Zrotation
													JOINT LeftHandThumb4
													{
														OFFSET 4.843811 -2.796570 2.796576
														CHANNELS 3 Xrotation Yrotation Zrotation
														End Site
														{
															OFFSET 0.000000 0.000000 0.000000
														}
													}
												}
											}
										}
										JOINT LeftHandIndex1
										{
											OFFSET 18.389847 -0.922348 4.596882
											CHANNELS 3 Xrotation Yrotation Zrotation
											JOINT LeftHandIndex2
											{
												OFFSET 4.711273 0.000000 0.000000
												CHANNELS 3 Xrotation Yrotation Zrotation
												JOINT LeftHandIndex3
												{
													OFFSET 2.886131 0.000000 0.000000
													CHANNELS 3 Xrotation Yrotation Zrotation
													JOINT LeftHandIndex4
													{
														OFFSET 6.145912 0.000000 0.000000
														CHANNELS 3 Xrotation Yrotation Zrotation
														End Site
														{
															OFFSET 0.000000 0.000000 0.000000
														}
													}
												}
											}
										}
										JOINT LeftHandMiddle1
										{
											OFFSET 18.013008 0.000000 0.000000
											CHANNELS 3 Xrotation Yrotation Zrotation
											JOINT LeftHandMiddle2
											{
												OFFSET 4.946693 0.000000 0.000000
												CHANNELS 3 Xrotation Yrotation Zrotation
												JOINT LeftHandMiddle3
												{
													OFFSET 3.342232 0.000000 0.000000
													CHANNELS 3 Xrotation Yrotation Zrotation
													JOINT LeftHandMiddle4
													{
														OFFSET 4.461754 0.000000 0.000000
														CHANNELS 3 Xrotation Yrotation Zrotation
														End Site
														{
															OFFSET 0.000000 0.000000 0.000000
														}
													}
												}
											}
										}
										JOINT LeftHandRing1
										{
											OFFSET 15.849892 -0.102921 -4.126150
											CHANNELS 3 Xrotation Yrotation Zrotation
											JOINT LeftHandRing2
											{
												OFFSET 3.527054 0.000000 0.000000
												CHANNELS 3 Xrotation Yrotation Zrotation
												JOINT LeftHandRing3
												{
													OFFSET 2.961098 0.000000 0.000000
													CHANNELS 3 Xrotation Yrotation Zrotation
													JOINT LeftHandRing4
													{
														OFFSET 4.927200 0.000000 0.000000
														CHANNELS 3 Xrotation Yrotation Zrotation
														End Site
														{
															OFFSET 0.000000 0.000000 0.000000
														}
													}
												}
											}
										}
										JOINT LeftHandPinky1
										{
											OFFSET 12.791824 -0.832031 -6.799156
											CHANNELS 3 Xrotation Yrotation Zrotation
											JOINT LeftHandPinky2
											{
												OFFSET 3.327133 0.000000 0.000000
												CHANNELS 3 Xrotation Yrotation Zrotation
												JOINT LeftHandPinky3
												{
													OFFSET 3.014900 0.000000 0.000000
													CHANNELS 3 Xrotation Yrotation Zrotation
													JOINT LeftHandPinky4
													{
														OFFSET 5.847786 0.000000 0.000000
														CHANNELS 3 Xrotation Yrotation Zrotation
														End Site
														{
															OFFSET 0.000000 0.000000 0.000000
														}
													}
												}
											}
										}
									}
								}
							}
						}
					}
					JOINT RightShoulder
					{
						OFFSET -6.292450 5.785301 -0.669000
						CHANNELS 3 Xrotation Yrotation Zrotation
						JOINT RightShoulder_split
						{
							OFFSET -6.292450 5.785301 -0.669000
							CHANNELS 3 Xrotation Yrotation Zrotation
							JOINT RightArm
							{
								OFFSET -13.907140 -6.093903 1.965100
								CHANNELS 3 Xrotation Yrotation Zrotation
								JOINT RightForeArm
								{
									OFFSET -34.140198 0.000000 0.000000
									CHANNELS 3 Xrotation Yrotation Zrotation
									JOINT RightHand
									{
										OFFSET -40.960209 0.000000 0.000000
										CHANNELS 3 Xrotation Yrotation Zrotation
										JOINT RightHandThumb1
										{
											OFFSET -10.007050 -7.170456 9.573117
											CHANNELS 3 Xrotation Yrotation Zrotation
											JOINT RightHandThumb2
											{
												OFFSET -1.835007 -1.059448 1.059443
												CHANNELS 3 Xrotation Yrotation Zrotation
												JOINT RightHandThumb3
												{
													OFFSET -2.112267 -1.219513 1.219518
													CHANNELS 3 Xrotation Yrotation Zrotation
													JOINT RightHandThumb4
													{
														OFFSET -4.843834 -2.796585 2.796590
														CHANNELS 3 Xrotation Yrotation Zrotation
														End Site
														{
															OFFSET 0.000000 0.000000 0.000000
														}
													}
												}
											}
										}
										JOINT RightHandIndex1
										{
											OFFSET -18.389870 -0.922424 4.596786
											CHANNELS 3 Xrotation Yrotation Zrotation
											JOINT RightHandIndex2
											{
												OFFSET -4.711273 0.000000 0.000000
												CHANNELS 3 Xrotation Yrotation Zrotation
												JOINT RightHandIndex3
												{
													OFFSET -2.886131 0.000000 0.000000
													CHANNELS 3 Xrotation Yrotation Zrotation
													JOINT RightHandIndex4
													{
														OFFSET -6.145920 0.000000 0.000000
														CHANNELS 3 Xrotation Yrotation Zrotation
														End Site
														{
															OFFSET 0.000000 0.000000 0.000000
														}
													}
												}
											}
										}
										JOINT RightHandMiddle1
										{
											OFFSET -18.013008 0.000000 0.000000
											CHANNELS 3 Xrotation Yrotation Zrotation
											JOINT RightHandMiddle2
											{
												OFFSET -4.946693 0.000000 0.000000
												CHANNELS 3 Xrotation Yrotation Zrotation
												JOINT RightHandMiddle3
												{
													OFFSET -3.342232 0.000000 0.000000
													CHANNELS 3 Xrotation Yrotation Zrotation
													JOINT RightHandMiddle4
													{
														OFFSET -4.461754 0.000000 0.000000
														CHANNELS 3 Xrotation Yrotation Zrotation
														End Site
														{
															OFFSET 0.000000 0.000000 0.000000
														}
													}
												}
											}
										}
										JOINT RightHandRing1
										{
											OFFSET -15.849876 -0.102936 -4.126237
											CHANNELS 3 Xrotation Yrotation Zrotation
											JOINT RightHandRing2
											{
												OFFSET -3.527054 0.000000 0.000000
												CHANNELS 3 Xrotation Yrotation Zrotation
												JOINT RightHandRing3
												{
													OFFSET -2.961098 0.000000 0.000000
													CHANNELS 3 Xrotation Yrotation Zrotation
													JOINT RightHandRing4
													{
														OFFSET -4.927200 0.000000 0.000000
														CHANNELS 3 Xrotation Yrotation Zrotation
														End Site
														{
															OFFSET 0.000000 0.000000 0.000000
														}
													}
												}
											}
										}
										JOINT RightHandPinky1
										{
											OFFSET -12.791786 -0.832077 -6.799222
											CHANNELS 3 Xrotation Yrotation Zrotation
											JOINT RightHandPinky2
											{
												OFFSET -3.327133 0.000000 0.000000
												CHANNELS 3 Xrotation Yrotation Zrotation
												JOINT RightHandPinky3
												{
													OFFSET -3.014900 0.000000 0.000000
													CHANNELS 3 Xrotation Yrotation Zrotation
													JOINT RightHandPinky4
													{
														OFFSET -5.847786 0.000000 0.000000
														CHANNELS 3 Xrotation Yrotation Zrotation
														End Site
														{
															OFFSET 0.000000 0.000000 0.000000
														}
													}
												}
											}
										}
									}
								}
							}
						}
					}
				}
			}
		}
	}
	JOINT LeftUpLeg
	{
		OFFSET 13.026900 -6.336304 -1.092800
		CHANNELS 3 Xrotation Yrotation Zrotation
		JOINT LeftLeg
		{
			OFFSET 0.524474 -46.096886 9.782700
			CHANNELS 3 Xrotation Yrotation Zrotation
			JOINT LeftFoot
			{
				OFFSET -0.524474 -53.427422 -12.948200
				CHANNELS 3 Xrotation Yrotation Zrotation
				JOINT LeftToeBase
				{
					OFFSET 0.192200 -14.009700 16.364100
					CHANNELS 3 Xrotation Yrotation Zrotation
					JOINT LeftToe_End
					{
						OFFSET -1.784700 -0.561700 9.474800
						CHANNELS 3 Xrotation Yrotation Zrotation
						End Site
						{
							OFFSET 0.000000 0.000000 0.000000
						}
					}
				}
			}
		}
	}
	JOINT RightUpLeg
	{
		OFFSET -12.883000 -6.336304 -1.092800
		CHANNELS 3 Xrotation Yrotation Zrotation
		JOINT RightLeg
		{
			OFFSET -0.524587 -46.096825 9.782800
			CHANNELS 3 Xrotation Yrotation Zrotation
			JOINT RightFoot
			{
				OFFSET 0.524587 -53.427383 -12.948300
				CHANNELS 3 Xrotation Yrotation Zrotation
				JOINT RightToeBase
				{
					OFFSET -0.192200 -14.009700 16.364100
					CHANNELS 3 Xrotation Yrotation Zrotation
					JOINT RightToe_End
					{
						OFFSET 1.784700 -0.561700 9.474800
						CHANNELS 3 Xrotation Yrotation Zrotation
						End Site
						{
							OFFSET 0.000000 0.000000 0.000000
						}
					}
				}
			}
		}
	}
}
MOTION
Frames: 6
Frame Time: 0.016667
69.919243 86.562996 286.561310 1.295130 28.562939 -16.757726 4.489163 -3.139095 0.272725 3.685480 -1.692998 1.426698 0.000000 0.000000 0.000000 3.657015 -1.820084 1.396205 0.856917 2.472372 0.809336 -13.888071 30.928596 5.475023 0.000001 -0.000002 0.000000 0.537711 -0.925233 -8.721434 0.000000 0.000000 0.000000 28.704782 -17.140809 -55.244356 0.000025 -63.812026 0.000020 -14.162577 -33.316249 32.504078 5.358057 -0.141372 9.666152 3.545766 27.155809 3.560557 3.579360 15.544286 0.630961 0.000001 -0.000000 0.000000 -1.578832 0.825933 -19.703496 0.405099 2.870987 -21.069202 0.009621 -0.615558 3.987632 -0.000002 0.000002 -0.000000 0.409511 7.162244 -25.647937 0.416494 2.993234 -22.185346 0.003726 -0.023819 3.007748 0.000001 -0.000001 0.000000 2.386874 10.570841 -32.882361 0.471668 2.115275 -18.421983 0.064939 0.187417 -1.985625 0.000000 0.000001 0.000000 2.967943 13.388250 -36.938910 0.139961 1.667051 -18.441907 -0.013608 0.754515 1.032460 0.000001 -0.000003 -0.000001 0.815844 -4.239274 12.335989 0.000000 0.000000 0.000000 15.586528 20.224395 47.923298 -0.002022 92.611662 0.001972 -14.992130 28.643979 -6.764719 0.789361 -8.211539 -4.825400 0.020092 -13.361245 -9.371031 3.749502 -15.817811 -0.052401 0.000003 -0.000000 0.000001 -1.070486 -2.247357 17.231261 0.405438 -2.871954 21.079316 -0.189675 0.296874 8.932109 0.000000 -0.000001 0.000001 0.438988 -7.256202 26.595148 0.417437 -2.995677 22.211550 0.081207 -1.101475 9.870308 0.000001 0.000000 0.000000 2.698231 -11.184242 32.166103 0.472421 -2.116942 18.440365 -0.173554 0.866920 9.714781 0.000001 -0.000003 0.000001 4.305370 -16.260315 34.920981 0.139794 -1.666349 18.434704 -0.527451 1.126973 9.842076 -0.000000 0.000001 0.000000 -43.613258 8.206841 4.591235 104.065384 6.129241 -0.258325 11.746967 1.407246 18.922928 -0.665707 0.000005 0.000005 -0.000001 -0.000000 -0.000001 -47.765453 2.854624 0.491118 63.855609 7.143202 -0.265605 -20.831968 -0.276695 14.487335 -4.331980 -0.000009 0.000004 -0.000000 0.000001 0.000000 
74.421814 85.872520 294.511627 0.591922 28.612352 -17.285395 5.232910 -0.736171 0.805085 4.311015 -0.536960 1.522727 0.000000 0.000000 0.000000 4.300140 -0.688782 1.521626 0.463916 2.096614 0.947763 -14.996444 28.403002 5.305056 -0.000000 -0.000001 0.000001 0.523713 -0.270278 -7.835308 0.000000 0.000000 0.000000 34.348564 -17.343303 -56.852125 0.000006 -59.199326 -0.000013 -16.618876 -33.493076 29.916775 5.358058 -0.141375 9.666155 3.545763 27.155813 3.560557 3.579361 15.544291 0.630961 0.000002 -0.000000 0.000001 -1.578833 0.825932 -19.703496 0.405098 2.870988 -21.069207 0.009620 -0.615553 3.987632 0.000000 0.000000 0.000000 0.409510 7.162241 -25.647937 0.416497 2.993238 -22.185346 0.003727 -0.023820 3.007748 0.000001 -0.000005 -0.000002 2.386874 10.570836 -32.882354 0.471668 2.115275 -18.421983 0.064935 0.187419 -1.985618 -0.000002 -0.000002 -0.000000 2.967943 13.388247 -36.938910 0.139963 1.667050 -18.441907 -0.013608 0.754517 1.032456 -0.000003 0.000002 0.000001 0.730129 -2.285046 12.250236 0.000000 0.000000 0.000000 5.243293 22.564746 51.239434 -0.000157 93.514927 0.000074 -16.491830 27.969625 -4.873440 0.789360 -8.211540 -4.825399 0.020092 -13.361248 -9.371032 3.749505 -15.817813 -0.052397 -0.000001 -0.000002 0.000000 -1.070487 -2.247356 17.231263 0.405439 -2.871957 21.079314 -0.189672 0.296875 8.932110 -0.000000 0.000000 -0.000000 0.438987 -7.256200 26.595148 0.417435 -2.995681 22.211550 0.081207 -1.101474 9.870307 0.000001 0.000000 -0.000001 2.698229 -11.184240 32.166103 0.472423 -2.116945 18.440367 -0.173552 0.866920 9.714779 -0.000000 0.000000 -0.000001 4.305368 -16.260317 34.920981 0.139792 -1.666347 18.434704 -0.527449 1.126974 9.842073 -0.000000 -0.000001 0.000002 -56.111298 7.462437 6.992132 105.452513 6.409178 -0.318350 12.071191 1.033333 18.702009 -1.115306 -0.000001 -0.000011 0.000003 0.000001 -0.000000 -41.489188 2.242251 1.186559 66.343007 8.064338 0.089324 -28.334422 -0.843406 11.505332 -4.695486 0.000013 0.000000 -0.000000 -0.000001 -0.000000 
79.631996 85.542679 302.489777 -0.041804 28.368598 -17.623891 5.567186 1.404411 1.517772 4.651098 0.654912 1.633862 0.000000 0.000000 0.000000 4.657232 0.491969 1.673785 0.396499 1.761078 0.948530 -15.762635 26.254646 5.119162 0.000000 -0.000001 -0.000000 0.472288 0.823556 -6.563498 0.000000 0.000000 0.000000 41.287039 -17.715619 -58.148727 0.000035 -58.979817 0.000047 -18.820699 -33.533500 26.792950 5.358054 -0.141371 9.666157 3.545770 27.155816 3.560553 3.579362 15.544293 0.630958 0.000002 0.000001 -0.000002 -1.578835 0.825932 -19.703494 0.405098 2.870987 -21.069204 0.009620 -0.615559 3.987631 -0.000003 0.000000 0.000000 0.409505 7.162244 -25.647939 0.416495 2.993241 -22.185342 0.003731 -0.023818 3.007748 0.000000 0.000003 0.000001 2.386871 10.570840 -32.882354 0.471665 2.115271 -18.421983 0.064934 0.187422 -1.985621 -0.000000 -0.000002 0.000001 2.967940 13.388253 -36.938910 0.139964 1.667052 -18.441900 -0.013607 0.754510 1.032458 0.000004 -0.000002 -0.000001 0.625965 0.265417 11.021706 0.000000 0.000000 0.000000 -6.297822 23.802318 54.826919 -0.000304 96.646958 0.000292 -19.103266 24.520601 -3.410975 0.789361 -8.211538 -4.825400 0.020097 -13.361244 -9.371033 3.749502 -15.817811 -0.052399 0.000002 0.000000 0.000000 -1.070484 -2.247355 17.231263 0.405440 -2.871956 21.079316 -0.189674 0.296874 8.932112 -0.000003 0.000001 -0.000000 0.438986 -7.256201 26.595145 0.417435 -2.995681 22.211550 0.081205 -1.101474 9.870311 0.000000 0.000001 0.000000 2.698231 -11.184239 32.166100 0.472421 -2.116944 18.440367 -0.173551 0.866919 9.714780 -0.000001 -0.000001 0.000002 4.305369 -16.260317 34.920978 0.139793 -1.666349 18.434706 -0.527447 1.126974 9.842076 -0.000002 0.000000 -0.000002 -66.963106 6.651253 8.336020 103.658277 7.226997 -0.304442 12.826388 1.056583 18.515149 -1.408048 0.000010 0.000007 -0.000000 -0.000000 -0.000001 -33.561104 1.742808 1.197987 66.513980 8.555426 0.428063 -35.300549 -0.394281 8.280201 -5.746970 0.000025 0.000008 -0.000000 -0.000002 -0.000001 
79.631996 85.542679 302.489777 -0.041804 28.368598 -17.623891 5.567186 1.404411 1.517772 4.651098 0.654912 1.633862 0.000000 0.000000 0.000000 4.657232 0.491969 1.673785 0.396499 1.761078 0.948530 -15.762635 26.254646 5.119162 0.000000 -0.000001 -0.000000 0.472288 0.823556 -6.563498 0.000000 0.000000 0.000000 41.287039 -17.715619 -58.148727 0.000035 -58.979817 0.000047 -18.820699 -33.533500 26.792950 5.358054 -0.141371 9.666157 3.545770 27.155816 3.560553 3.579362 15.544293 0.630958 0.000002 0.000001 -0.000002 -1.578835 0.825932 -19.703494 0.405098 2.870987 -21.069204 0.009620 -0.615559 3.987631 -0.000003 0.000000 0.000000 0.409505 7.162244 -25.647939 0.416495 2.993241 -22.185342 0.003731 -0.023818 3.007748 0.000000 0.000003 0.000001 2.386871 10.570840 -32.882354 0.471665 2.115271 -18.421983 0.064934 0.187422 -1.985621 -0.000000 -0.000002 0.000001 2.967940 13.388253 -36.938910 0.139964 1.667052 -18.441900 -0.013607 0.754510 1.032458 0.000004 -0.000002 -0.000001 0.625965 0.265417 11.021706 0.000000 0.000000 0.000000 -6.297822 23.802318 54.826919 -0.000304 96.646958 0.000292 -19.103266 24.520601 -3.410975 0.789361 -8.211538 -4.825400 0.020097 -13.361244 -9.371033 3.749502 -15.817811 -0.052399 0.000002 0.000000 0.000000 -1.070484 -2.247355 17.231263 0.405440 -2.871956 21.079316 -0.189674 0.296874 8.932112 -0.000003 0.000001 -0.000000 0.438986 -7.256201 26.595145 0.417435 -2.995681 22.211550 0.081205 -1.101474 9.870311 0.000000 0.000001 0.000000 2.698231 -11.184239 32.166100 0.472421 -2.116944 18.440367 -0.173551 0.866919 9.714780 -0.000001 -0.000001 0.000002 4.305369 -16.260317 34.920978 0.139793 -1.666349 18.434706 -0.527447 1.126974 9.842076 -0.000002 0.000000 -0.000002 -66.963106 6.651253 8.336020 103.658277 7.226997 -0.304442 12.826388 1.056583 18.515149 -1.408048 0.000010 0.000007 -0.000000 -0.000000 -0.000001 -33.561104 1.742808 1.197987 66.513980 8.555426 0.428063 -35.300549 -0.394281 8.280201 -5.746970 0.000025 0.000008 -0.000000 -0.000002 -0.000001 
79.631996 85.542679 302.489777 -0.041804 28.368598 -17.623891 5.567186 1.404411 1.517772 4.651098 0.654912 1.633862 0.000000 0.000000 0.000000 4.657232 0.491969 1.673785 0.396499 1.761078 0.948530 -15.762635 26.254646 5.119162 0.000000 -0.000001 -0.000000 0.472288 0.823556 -6.563498 0.000000 0.000000 0.000000 41.287039 -17.715619 -58.148727 0.000035 -58.979817 0.000047 -18.820699 -33.533500 26.792950 5.358054 -0.141371 9.666157 3.545770 27.155816 3.560553 3.579362 15.544293 0.630958 0.000002 0.000001 -0.000002 -1.578835 0.825932 -19.703494 0.405098 2.870987 -21.069204 0.009620 -0.615559 3.987631 -0.000003 0.000000 0.000000 0.409505 7.162244 -25.647939 0.416495 2.993241 -22.185342 0.003731 -0.023818 3.007748 0.000000 0.000003 0.000001 2.386871 10.570840 -32.882354 0.471665 2.115271 -18.421983 0.064934 0.187422 -1.985621 -0.000000 -0.000002 0.000001 2.967940 13.388253 -36.938910 0.139964 1.667052 -18.441900 -0.013607 0.754510 1.032458 0.000004 -0.000002 -0.000001 0.625965 0.265417 11.021706 0.000000 0.000000 0.000000 -6.297822 23.802318 54.826919 -0.000304 96.646958 0.000292 -19.103266 24.520601 -3.410975 0.789361 -8.211538 -4.825400 0.020097 -13.361244 -9.371033 3.749502 -15.817811 -0.052399 0.000002 0.000000 0.000000 -1.070484 -2.247355 17.231263 0.405440 -2.871956 21.079316 -0.189674 0.296874 8.932112 -0.000003 0.000001 -0.000000 0.438986 -7.256201 26.595145 0.417435 -2.995681 22.211550 0.081205 -1.101474 9.870311 0.000000 0.000001 0.000000 2.698231 -11.184239 32.166100 0.472421 -2.116944 18.440367 -0.173551 0.866919 9.714780 -0.000001 -0.000001 0.000002 4.305369 -16.260317 34.920978 0.139793 -1.666349 18.434706 -0.527447 1.126974 9.842076 -0.000002 0.000000 -0.000002 -66.963106 6.651253 8.336020 103.658277 7.226997 -0.304442 12.826388 1.056583 18.515149 -1.408048 0.000010 0.000007 -0.000000 -0.000000 -0.000001 -33.561104 1.742808 1.197987 66.513980 8.555426 0.428063 -35.300549 -0.394281 8.280201 -5.746970 0.000025 0.000008 -0.000000 -0.000002 -0.000001 
79.631996 85.542679 302.489777 -0.041804 28.368598 -17.623891 5.567186 1.404411 1.517772 4.651098 0.654912 1.633862 0.000000 0.000000 0.000000 4.657232 0.491969 1.673785 0.396499 1.761078 0.948530 -15.762635 26.254646 5.119162 0.000000 -0.000001 -0.000000 0.472288 0.823556 -6.563498 0.000000 0.000000 0.000000 41.287039 -17.715619 -58.148727 0.000035 -58.979817 0.000047 -18.820699 -33.533500 26.792950 5.358054 -0.141371 9.666157 3.545770 27.155816 3.560553 3.579362 15.544293 0.630958 0.000002 0.000001 -0.000002 -1.578835 0.825932 -19.703494 0.405098 2.870987 -21.069204 0.009620 -0.615559 3.987631 -0.000003 0.000000 0.000000 0.409505 7.162244 -25.647939 0.416495 2.993241 -22.185342 0.003731 -0.023818 3.007748 0.000000 0.000003 0.000001 2.386871 10.570840 -32.882354 0.471665 2.115271 -18.421983 0.064934 0.187422 -1.985621 -0.000000 -0.000002 0.000001 2.967940 13.388253 -36.938910 0.139964 1.667052 -18.441900 -0.013607 0.754510 1.032458 0.000004 -0.000002 -0.000001 0.625965 0.265417 11.021706 0.000000 0.000000 0.000000 -6.297822 23.802318 54.826919 -0.000304 96.646958 0.000292 -19.103266 24.520601 -3.410975 0.789361 -8.211538 -4.825400 0.020097 -13.361244 -9.371033 3.749502 -15.817811 -0.052399 0.000002 0.000000 0.000000 -1.070484 -2.247355 17.231263 0.405440 -2.871956 21.079316 -0.189674 0.296874 8.932112 -0.000003 0.000001 -0.000000 0.438986 -7.256201 26.595145 0.417435 -2.995681 22.211550 0.081205 -1.101474 9.870311 0.000000 0.000001 0.000000 2.698231 -11.184239 32.166100 0.472421 -2.116944 18.440367 -0.173551 0.866919 9.714780 -0.000001 -0.000001 0.000002 4.305369 -16.260317 34.920978 0.139793 -1.666349 18.434706 -0.527447 1.126974 9.842076 -0.000002 0.000000 -0.000002 -66.963106 6.651253 8.336020 103.658277 7.226997 -0.304442 12.826388 1.056583 18.515149 -1.408048 0.000010 0.000007 -0.000000 -0.000000 -0.000001 -33.561104 1.742808 1.197987 66.513980 8.555426 0.428063 -35.300549 -0.394281 8.280201 -5.746970 0.000025 0.000008 -0.000000 -0.000002 -0.000001 
